<svg xmlns="http://www.w3.org/2000/svg" viewBox="0 0 64 64" role="img" aria-label="G favicon">
  <defs>
    <linearGradient id="gGrad" x1="0" y1="0" x2="1" y2="1">
      <stop offset="0%" stop-color="#f97316" />
      <stop offset="100%" stop-color="#dc2626" />
    </linearGradient>
  </defs>
  <rect width="64" height="64" rx="16" fill="#0f172a" />
  <path
    d="M32 13c-10.49 0-19 8.51-19 19s8.51 19 19 19c8.36 0 15.46-5.4 17.99-12.9a2 2 0 0 0-1.9-2.63h-9.95a2 2 0 1 0 0 4h7.01A14.97 14.97 0 0 1 32 47c-8.28 0-15-6.72-15-15s6.72-15 15-15c3.62 0 6.95 1.28 9.55 3.42a2 2 0 1 0 2.54-3.1A18.95 18.95 0 0 0 32 13Z"
    fill="url(#gGrad)"
  />
  <rect x="31" y="29.5" width="15" height="4" rx="2" fill="url(#gGrad)" />
</svg>